<svg viewBox="0 0 319 54" xmlns="http://www.w3.org/2000/svg"><path fill-rule="evenodd" clip-rule="evenodd" d="M0 53.325h53.364V0H0v53.325zm42.524-35.102l-1.425-8.01a2.252 2.252 0 00-2.61-1.827l-7.988 1.398c-1.99.349-2.555 2.902-.914 4.058l9.387 6.612c1.668 1.156 3.9-.242 3.55-2.23zM24.88 21.69l.968.188a3.615 3.615 0 012.959 4.166L25.929 42.36a3.625 3.625 0 01-4.196 2.93l-.969-.161a3.623 3.623 0 01-2.931-4.193L20.71 24.62a3.619 3.619 0 014.169-2.93zm-7.935-10.267l-.995-.161c-1.963-.35-3.82.967-4.169 2.93L8.903 30.505a3.623 3.623 0 002.932 4.193l.968.161A3.625 3.625 0 0017 31.93l2.878-16.314c.323-1.962-.968-3.844-2.932-4.193zM39.27 30.506h1.183a5.944 5.944 0 015.945 5.94v1.183c0 3.279-2.663 5.94-5.945 5.94H39.27a5.944 5.944 0 01-5.944-5.94v-1.183c0-3.279 2.662-5.94 5.944-5.94z"/><path d="M81.149 32.119l-2.044 1.532a81.473 81.473 0 012.125 1.935c-3.362.134-5.837.242-7.397.296a70.956 70.956 0 003.04-5.134l-2.986-.968c-.78 2.016-1.856 4.086-3.228 6.209-.457.027-1.076.027-1.829.054-.78.027-1.291.027-1.533.027l.161 2.634c6.321-.242 11.647-.457 15.923-.672.646.806 1.13 1.451 1.399 1.989l2.233-1.72c-.512-.888-1.319-1.882-2.421-3.01-1.103-1.13-2.233-2.205-3.443-3.172zM69.61 50.315h2.663v-.887h9.09v.86h2.798V40.72H69.61v9.595zm2.663-7.15h9.09v3.764h-9.09v-3.763zM105.464 35.075H100.3v2.607h5.164v5.295c-2.69.968-4.653 1.613-5.918 1.99l1.157 2.66c2.528-1.048 4.115-1.72 4.761-1.989V50.1h2.716V30.29h-2.716v4.784zM117.648 46.499c-.134.564-.403.833-.807.833h-2.286c-.404 0-.646-.08-.753-.242-.108-.161-.162-.538-.162-1.156v-6.37c2.529-1.317 4.627-2.553 6.348-3.709l-1.883-2.311a37.307 37.307 0 01-4.491 3.306v-6.532h-2.69v15.616c0 1.532.215 2.58.672 3.145.458.564 1.291.833 2.555.833h2.932c1.184 0 1.991-.43 2.448-1.263.457-.833.753-2.338.888-4.516a6.048 6.048 0 01-2.475-1.182c-.054 1.828-.161 3.01-.296 3.548zM138.224 38.005c-.834-.726-2.178-1.398-4.061-2.096l-1.372 1.935c1.721.752 3.039 1.532 3.927 2.311l1.506-2.15zM137.337 41.445a55.86 55.86 0 01-3.927 6.962l2.286 1.612c1.264-2.23 2.474-4.569 3.604-6.961l-1.963-1.613zM139.327 34.86h3.712c-.188.538-.538 1.398-1.103 2.554h-1.264c-.565 0-.968.027-1.237.027l.269 2.419c4.061-.188 7.612-.377 10.705-.565.403.592.672 1.075.807 1.398l2.178-1.183c-.349-.645-.86-1.397-1.56-2.23a22.806 22.806 0 00-2.178-2.339l-2.018 1.075c.135.135.323.323.565.618.269.27.431.457.511.565-1.398.054-2.77.107-4.115.134.296-.51.753-1.344 1.372-2.472h7.074v-2.312h-5.81v-2.607h-2.636v2.607h-5.272v2.312zM140.995 42.467c0 .78-.054 1.451-.134 2.043-.108.591-.377 1.29-.807 2.042-.431.78-1.049 1.425-1.829 1.99.322.188.645.456 1.022.779.376.35.645.645.807.914.699-.538 1.291-1.102 1.748-1.747.457-.645.807-1.317 1.022-2.016.215-.699.35-1.344.43-1.935.081-.592.108-1.237.108-1.962V40.45h-2.34v2.016h-.027zM146.858 40.64h-2.259v8.734h2.259V40.64z"/><path d="M151.7 47.305c-.027.322-.108.51-.189.564-.053.054-.161.081-.268.081h-.35c-.135 0-.215-.027-.269-.108-.027-.053-.054-.241-.054-.59v-6.774h-2.367v6.72c0 1.182.162 1.962.484 2.284.377.376.861.565 1.48.565h1.102a2.34 2.34 0 001.184-.296c.35-.215.592-.538.726-.995.108-.43.215-1.263.269-2.526-.619-.188-1.183-.538-1.721-.968.027 1.075 0 1.774-.027 2.043zM139.408 32.173c-.888-.726-2.206-1.452-3.954-2.15l-1.426 1.935c1.749.752 3.013 1.532 3.874 2.338l1.506-2.123zM167.273 36.715c1.049-.726 2.098-1.613 3.201-2.66 1.103-1.049 2.044-2.07 2.824-3.092l-2.528-1.021c-.511.78-1.264 1.586-2.179 2.473-.941.887-1.856 1.612-2.743 2.177.43.457.887 1.182 1.425 2.123zM174.051 39.645h6.456v7.606c0 .269-.189.403-.565.403-.135.027-.538.027-1.211 0-.672 0-1.291-.027-1.856-.054.404.887.673 1.774.78 2.634 2.152 0 3.578-.134 4.25-.43.484-.188.807-.457.969-.86.161-.403.268-.94.268-1.666V39.59h2.986v-2.446h-12.077v2.5zM171.604 34.645c-.7 1.21-1.587 2.393-2.69 3.575a20.933 20.933 0 01-3.335 2.957c.538.564 1.129 1.317 1.775 2.258a33.87 33.87 0 001.802-1.613v8.52h2.609v-11.37c.888-1.128 1.668-2.23 2.34-3.359l-2.501-.968zM185.563 31.178h-10.597v2.473h10.597v-2.473zM202.535 50.315h2.609v-.726h8.419v.699h2.743v-9.972h-13.771v9.999zm2.582-7.875h8.419v1.505h-8.419V42.44zm0 3.44h8.419v1.559h-8.419V45.88zM215.446 34.189l-.941-.189h3.469v-2.284h-7.477v-1.774h-2.743v1.774h-7.101V34h3.658l-.888.162c.457.887.78 1.72.942 2.5h-4.923v2.31h19.555v-2.31h-4.734c.107-.189.484-1.022 1.183-2.473zm-3.416 2.472h-5.541l.646-.16c-.135-.807-.457-1.64-.968-2.5h6.267a14.382 14.382 0 01-.942 2.526l.538.134zM251.999 44.563v-2.257h-8.445v-1.371h1.855l.054.295a816.203 816.203 0 004.869-.564c.107.51.188.887.215 1.156l1.802-.726c-.188-1.182-.646-2.607-1.399-4.273l-1.533.564c.457-.726 1.184-1.881 2.098-3.413l-1.99-.834c-.242.538-.565 1.21-.995 1.99l-.619-.619c.376-.645 1.049-1.881 1.963-3.709l-1.99-.726a17.266 17.266 0 01-1.345 3.145l-.403-.323-.565.834v-1.747h-2.394c.054-.135.134-.404.296-.807.161-.403.269-.726.35-.967l-2.636-.242c-.027.43-.162 1.129-.377 2.042h-1.883v7.446c-.242-.995-.511-1.801-.753-2.42l-1.533.484c.592-.887 1.318-2.07 2.179-3.601l-1.964-.78c-.188.484-.511 1.13-.968 1.935-.135-.134-.35-.322-.673-.59.538-.86 1.157-2.07 1.883-3.656l-2.017-.726a22.13 22.13 0 01-1.291 3.199l-.43-.27-.996 1.748c.969.78 1.776 1.505 2.421 2.177-.565.887-1.022 1.613-1.425 2.15l-1.049.054.242 2.123 4.868-.672c.081.404.135.78.161 1.075l1.722-.645-.027-.107h1.641v1.37h-8.392v2.258h6.24c-1.856 1.532-4.115 2.661-6.778 3.44a10.723 10.723 0 011.748 2.15c2.824-1.047 5.218-2.526 7.182-4.488v4.596h2.609V45.72a18.239 18.239 0 003.416 2.473 19.565 19.565 0 003.846 1.747 11.812 11.812 0 011.721-2.204c-2.743-.726-5.029-1.8-6.858-3.225h6.347v.053zm-2.636-7.042c.054.108.081.242.135.377.054.134.107.295.161.483.054.189.108.323.135.404l-1.399.107c.296-.35.619-.806.968-1.37zm-3.765-2.472a25.02 25.02 0 011.883 1.962 31.756 31.756 0 01-1.372 2.015l-.511.027V35.05zm-9.898 3.87c.376-.537.672-.968.887-1.317.054.108.162.51.377 1.21l-1.264.107zm7.638.08h-2.205V37.36h2.205V39zm0-3.44h-2.205v-1.612h2.205v1.612zM276.691 29.942h-2.744v3.763h-7.531v10.993h2.636v-1.183h4.895v6.8h2.744v-6.8h4.949v1.075h2.743V33.705h-7.665v-3.763h-.027zm-2.771 11.02h-4.895v-4.677h4.895v4.677zm7.72-4.677v4.677h-4.949v-4.677h4.949zM317.494 40.773c-.726-1.451-1.533-2.768-2.448-3.95l-2.367 1.209a25.432 25.432 0 012.34 4.058c.7 1.479 1.13 2.796 1.345 3.898l2.636-1.29c-.296-1.156-.78-2.446-1.506-3.925zM311.388 36.097l1.722-2.285c-.888-.645-2.018-1.344-3.389-2.07a30.529 30.529 0 00-3.927-1.746l-1.668 2.015c1.291.484 2.636 1.13 3.981 1.882 1.345.78 2.447 1.505 3.281 2.204zM297.913 45.316l2.42 1.398c1.13-1.667 1.91-4.49 2.34-8.467l-2.555-.538c-.323 3.387-1.049 5.914-2.205 7.607zM311.953 46.982c-.161.484-.511.753-1.022.753h-3.012c-.511 0-.834-.081-.969-.215-.134-.135-.215-.457-.215-.995V36.177h-2.716v10.348c0 1.37.242 2.312.726 2.822.484.511 1.425.753 2.797.753h3.551c1.291 0 2.178-.376 2.662-1.129.484-.752.807-2.15.942-4.22-1.022-.268-1.829-.645-2.421-1.129-.027 1.747-.134 2.876-.323 3.36zM70.174 19.809h3.604V4.784h2.798v-2.66h-9.199v2.66h2.797v15.025zM84.134 2.123L80.691 19.81h3.39l.672-3.898h2.797l.646 3.898h3.308L88.088 2.123h-3.954zm.942 11.584l1.049-7.122 1.076 7.122h-2.125zM100.434 2.123h-3.578V19.81h3.578V2.123zM115.523 11.02c.888-.753 1.318-2.016 1.318-3.817 0-3.387-1.533-5.08-4.599-5.08h-5.622V19.81h3.577v-7.66h1.668c1.56 0 2.77-.377 3.658-1.13zm-5.326-1.398V4.65h1.265c.564 0 .995.107 1.291.295.296.188.457.457.565.807.08.349.134.806.134 1.397 0 .914-.134 1.56-.403 1.935-.269.377-.78.538-1.56.538h-1.292zM125.744 11.826h3.201V9.299h-3.201V4.623h4.116v-2.5h-7.693V19.81h7.746v-2.446h-4.169v-5.537zM138.87 2.123h-3.578V19.81h3.578V2.123zM166.278 2.123h-3.712l-2.313 11.154-2.179-11.154h-3.819l-.296 17.686h2.636l.269-12.069 2.313 12.069h2.232l2.287-12.015.269 12.015h2.636l-.323-17.686zM174.589 19.378c.753.43 1.775.672 3.093.672s2.34-.215 3.093-.672c.753-.456 1.265-1.102 1.587-1.935.296-.833.458-1.908.458-3.225V2.123h-3.551v12.606c0 .833-.107 1.505-.296 1.989-.215.483-.618.725-1.264.725-.645 0-1.076-.242-1.264-.725-.215-.484-.296-1.156-.296-1.99V2.124h-3.55v12.095c0 1.317.161 2.392.457 3.225.269.86.807 1.505 1.533 1.935zM195.246 10.428l-1.802-1.585c-.538-.484-.941-.914-1.21-1.317-.269-.404-.404-.887-.404-1.479 0-.43.108-.78.35-1.075.215-.295.538-.43.968-.43.511 0 .861.215 1.022.672.188.457.269 1.129.296 2.043l3.12-.457c-.081-1.425-.43-2.607-1.049-3.521-.619-.914-1.721-1.398-3.308-1.398-1.507 0-2.717.404-3.551 1.156-.86.78-1.291 1.882-1.291 3.333 0 .994.189 1.828.565 2.5.377.671.941 1.317 1.668 1.962l1.829 1.585c.672.592 1.156 1.13 1.479 1.613.323.484.457 1.075.457 1.774 0 .43-.08.78-.269 1.048-.188.269-.484.403-.914.403-.565 0-.995-.268-1.291-.806-.296-.538-.431-1.37-.457-2.473l-3.094.511c.081 1.881.511 3.28 1.345 4.166.807.887 2.044 1.344 3.685 1.344.888 0 1.695-.188 2.394-.564.699-.377 1.237-.887 1.614-1.56.376-.671.565-1.424.565-2.257 0-1.102-.242-2.043-.7-2.85a12.842 12.842 0 00-2.017-2.338zM206.973 2.123h-3.577V19.81h3.577V2.123zM218.082 1.908c-1.883 0-3.227.51-4.007 1.505-.78.995-1.157 2.473-1.157 4.435v6.316c0 1.909.403 3.36 1.183 4.382.78 1.02 2.125 1.505 4.008 1.505 1.829 0 3.093-.457 3.846-1.398.754-.914 1.103-2.23 1.103-3.924v-1.451h-3.496v1.72c0 .806-.081 1.424-.269 1.854-.189.43-.592.618-1.211.618-.592 0-.995-.215-1.21-.618-.215-.403-.323-1.021-.323-1.854V6.96c0-.806.081-1.424.296-1.854.188-.43.619-.645 1.264-.645.43 0 .753.107.968.322.216.215.35.484.404.806.054.323.081.753.081 1.264v1.64h3.496V7.014c0-1.64-.376-2.903-1.129-3.79-.781-.887-2.045-1.317-3.847-1.317zM242.612 20.05c1.829 0 3.093-.456 3.846-1.397.753-.914 1.103-2.23 1.103-3.924v-1.451h-3.497v1.72c0 .806-.08 1.424-.269 1.854-.188.43-.564.618-1.156.618s-.995-.215-1.237-.618c-.216-.403-.323-1.021-.323-1.854V6.96c0-.806.081-1.424.296-1.854.188-.43.618-.645 1.264-.645.43 0 .753.107.968.322.215.215.35.484.404.806.053.323.08.753.08 1.264v1.64h3.497V7.014c0-1.64-.377-2.903-1.13-3.79-.753-.887-2.017-1.317-3.819-1.317-1.883 0-3.228.51-4.008 1.505-.78.995-1.156 2.473-1.156 4.435v6.316c0 1.909.403 3.36 1.183 4.382.726.994 2.071 1.505 3.954 1.505zM256.841 11.826h3.201V9.299h-3.201V4.623h4.142v-2.5h-7.719V19.81h7.746v-2.446h-4.169v-5.537zM269.429 10.025l3.927 9.784h2.447V2.123h-3.012v9.192l-3.927-9.192h-2.502V19.81h3.067v-9.784zM280.806 4.784h2.797v15.025h3.605V4.784h2.797v-2.66h-9.199v2.66zM298.585 11.826h3.174V9.299h-3.174V4.623h4.115v-2.5h-7.692V19.81h7.746v-2.446h-4.169v-5.537zM311.657 11.8h1.318l2.017 8.01h3.685l-2.448-8.629c.807-.376 1.372-.887 1.695-1.612.323-.7.484-1.64.484-2.796 0-1.72-.484-2.93-1.452-3.628-.969-.699-2.394-1.048-4.304-1.048h-4.599v17.685h3.577V11.8h.027zm0-7.257h1.237c.807 0 1.345.215 1.668.618.296.403.457 1.048.457 1.908 0 .887-.161 1.532-.511 1.962-.35.43-.941.618-1.775.618h-1.076V4.543z"/></svg>