<?xml version="1.0" encoding="UTF-8"?>
<svg id="_圖層_1" data-name="圖層_1" xmlns="http://www.w3.org/2000/svg" viewBox="0 0 396.47 130.25">
  <defs>
    <style>
      .cls-1 {
        fill: #bc6c25;
      }

      .cls-2 {
        font-family: YuGothicUI-Bold, 'Yu Gothic UI';
        font-size: 38.78px;
        font-weight: 700;
      }

      .cls-2, .cls-3 {
        fill: #666b33;
      }

      .cls-4 {
        letter-spacing: .28em;
      }

      .cls-5 {
        fill: #fff;
      }

      .cls-6 {
        fill: #754e25;
      }

      .cls-7 {
        letter-spacing: .3em;
      }

      .cls-8 {
        letter-spacing: .3em;
      }
    </style>
  </defs>
  <path class="cls-1" d="M7.23,130.25c17.19-17.17,33.96-33.93,50.46-50.41,16.59,16.59,33.35,33.35,50.18,50.18-7.09-2.65-14.15-5.37-21.28-7.92-1.8-.64-3.78-1.06-5.68-1.07-15.58-.08-31.16-.1-46.74.02-2.1.02-4.27.67-6.28,1.4-6.73,2.44-13.39,5.04-20.66,7.8Z"/>
  <path class="cls-6" d="M56.53,98.19h-6.25v6.1h6.25v-6.1Z"/>
  <path class="cls-3" d="M77.12,21.44c1.07-4.87,1.92-9.2,3.02-13.46.21-.81,1.31-1.64,2.18-1.97,1.9-.72,3.92-1.12,6.39-1.8-1.06,4.8-1.96,9.19-3.06,13.53-.19.74-1.19,1.5-1.98,1.8-1.91.71-3.92,1.16-6.55,1.89Z"/>
  <path class="cls-3" d="M68.15,9.67c-1.15,5.22-1.89,9.61-3.2,13.83-.34,1.09-2.39,1.78-3.77,2.39-1.15.5-2.48.61-4.73,1.12,1.25-5.2,1.74-10.03,3.7-14.16.82-1.73,4.74-1.98,8-3.18Z"/>
  <path class="cls-3" d="M26.76,20.98c-1.08,4.9-1.92,9.24-3.08,13.5-.24.86-1.59,1.63-2.6,2.03-1.69.67-3.52,1-5.98,1.66,1.2-4.97,2.08-9.51,3.49-13.87.32-1,2.39-1.53,3.74-2.09,1.19-.49,2.49-.71,4.44-1.23Z"/>
  <path class="cls-3" d="M32.22,44.67c-2.63,4.93-4.7,8.95-6.93,12.87-.32.57-1.4.93-2.15.98-2.05.13-4.12.05-6.88.05,2.47-4.51,4.23-9.06,7.22-12.56,1.3-1.52,5.13-.88,8.75-1.34Z"/>
  <path class="cls-3" d="M53.33,45.06c-2.45,4.6-4.53,8.62-6.76,12.55-.31.55-1.41.87-2.17.92-2.03.12-4.08.04-6.82.04,2.45-4.52,4.49-8.64,6.93-12.52.51-.81,2.48-.81,3.8-.96,1.38-.15,2.8-.03,5.02-.03Z"/>
  <path class="cls-3" d="M75.29,45.06c-2.47,4.61-4.53,8.64-6.83,12.53-.39.66-1.83.87-2.82.95-1.82.15-3.66.04-6.11.04,2.4-4.45,4.49-8.57,6.87-12.52.43-.7,2.04-.85,3.13-.96,1.6-.15,3.24-.04,5.76-.04Z"/>
  <path class="cls-3" d="M96.59,45.06c-2.48,4.64-4.53,8.57-6.73,12.42-.33.58-1.37.99-2.11,1.04-2.04.14-4.09.05-6.89.05,2.44-4.56,4.46-8.74,6.94-12.61.54-.84,2.73-.72,4.18-.87,1.28-.13,2.58-.03,4.61-.03Z"/>
  <path class="cls-3" d="M47.2,16.85c-.95,4.22-1.74,8.48-2.99,12.61-.29.97-2.04,1.68-3.25,2.15-1.46.57-3.08.76-5.13,1.24,1.09-4.92,1.46-9.63,3.32-13.64.86-1.85,4.64-2.34,7.09-3.44.32.36.64.72.95,1.08Z"/>
  <path class="cls-3" d="M113.4,44.85v13.52h-11.52c2.39-4.41,4.47-8.65,7.01-12.6.53-.83,2.72-.6,4.51-.92Z"/>
  <path class="cls-3" d="M109.31,12.48c-3.85,1.08-7.26,2.04-11.42,3.21,1.17-5.13,2.06-9.67,3.34-14.1.24-.81,2.05-1.39,3.22-1.59.5-.08,1.53.98,1.77,1.7,1.1,3.41,2,6.87,3.1,10.77Z"/>
  <path class="cls-3" d="M10.49,45.31c-2.22,4.21-4.15,8.2-6.43,11.98-.54.9-2.25,1.09-3.91,1.83v-13.81h10.34Z"/>
  <path class="cls-3" d="M.02,42.09c0-3.99-.1-7.98.09-11.96.03-.71,1.13-1.64,1.93-1.97,1.27-.51,2.71-.6,4.58-.96-1.04,4.63-1.89,8.95-3.08,13.18-.26.94-1.76,1.53-2.69,2.29-.28-.19-.56-.39-.83-.58Z"/>
  <path class="cls-5" d="M56.52,106.36v6.2h-6.19v-6.2h6.19Z"/>
  <path class="cls-5" d="M56.53,98.19v6.1h-6.25v-6.1h6.25Z"/>
  <path class="cls-5" d="M65.04,98.19v6.1h-6.25v-6.1h6.25Z"/>
  <path class="cls-5" d="M65.04,106.7v6.1h-6.25v-6.1h6.25Z"/>
  <polygon class="cls-1" points="4.42 62.67 109.51 62.67 109.51 119.69 57.11 69.54 4.42 119.69 4.42 62.67"/>
  <g>
    <path d="M152.93,68.69h-4.29l-.69-3.04h-4.36l-.72,3.04h-4.21l4.82-18.19h4.63l4.82,18.19ZM147.16,62.38c-.62-2.71-1.08-5.28-1.39-7.73h-.05c-.33,2.52-.79,5.09-1.38,7.73h2.82Z"/>
    <path d="M163.39,50.5h4.81c1.94,0,3.48.5,4.61,1.5s1.69,2.36,1.69,4.07c0,.88-.21,1.73-.64,2.56s-1.05,1.44-1.87,1.86l3.3,8.2h-4.36l-3.34-8.28h-.07v8.28h-4.13v-18.19ZM167.52,54.02v4.32c1.83-.04,2.74-.68,2.74-1.92,0-.84-.21-1.45-.63-1.81s-1.12-.56-2.11-.59Z"/>
    <path d="M184.62,50.5h9.85v4.16h-2.85v14.03h-4.18v-14.03h-2.82v-4.16Z"/>
    <path d="M229.27,68.69l-.69-.98c-1.3.99-2.62,1.49-3.96,1.49-1.44,0-2.64-.45-3.62-1.35s-1.46-2.01-1.46-3.34c0-1,.26-1.85.78-2.55s1.32-1.47,2.41-2.32c-.85-1.06-1.42-1.95-1.69-2.66s-.41-1.42-.41-2.14c0-1.44.46-2.61,1.39-3.51s2.14-1.34,3.64-1.34c1.39,0,2.58.46,3.58,1.39s1.5,2.03,1.5,3.32c0,.92-.24,1.8-.71,2.64s-1.26,1.74-2.37,2.69l1.62,2.18,1.68-1.62,2.37,2.98-1.81,1.73,2.43,3.38h-4.66ZM226.42,64.76l-1.63-2.26c-.88.66-1.32,1.29-1.32,1.88,0,.33.12.59.35.8s.52.31.88.31c.48,0,1.06-.24,1.73-.72ZM225.53,57.14c.98-.84,1.47-1.61,1.47-2.29,0-.32-.12-.58-.37-.8s-.57-.32-.96-.32c-.35,0-.64.13-.9.39s-.38.57-.38.93c0,.53.38,1.22,1.14,2.08Z"/>
    <path d="M268.98,64.4v4.32c-.87.28-1.65.42-2.34.42-2.39,0-4.33-.9-5.81-2.69s-2.23-4.15-2.23-7.08c0-2.72.75-4.96,2.25-6.72s3.39-2.65,5.68-2.65c.89,0,1.71.12,2.45.35v4.33c-.79-.26-1.54-.4-2.23-.4-1.07,0-1.96.49-2.67,1.47s-1.06,2.23-1.06,3.75c0,1.63.36,2.93,1.07,3.88s1.66,1.42,2.85,1.42c.58,0,1.26-.14,2.04-.41Z"/>
    <path d="M279.91,50.5h4.24v12.81c0,.6.16,1.07.48,1.42s.74.52,1.28.52.99-.19,1.31-.56.48-.89.48-1.54v-12.66h4.21v11.94c0,1.63-.21,2.93-.64,3.91s-1.06,1.7-1.89,2.16-1.99.69-3.48.69c-2.2,0-3.75-.56-4.65-1.69s-1.35-3.03-1.35-5.71v-11.29Z"/>
    <path d="M304.02,50.5h4.13v13.98h3.27v4.21h-7.4v-18.19Z"/>
    <path d="M320.72,50.5h9.85v4.16h-2.85v14.03h-4.18v-14.03h-2.82v-4.16Z"/>
    <path d="M341.39,50.5h4.24v12.81c0,.6.16,1.07.48,1.42s.74.52,1.28.52.99-.19,1.31-.56.48-.89.48-1.54v-12.66h4.21v11.94c0,1.63-.21,2.93-.64,3.91s-1.06,1.7-1.89,2.16-1.99.69-3.48.69c-2.2,0-3.75-.56-4.65-1.69s-1.35-3.03-1.35-5.71v-11.29Z"/>
    <path d="M365.5,50.5h4.81c1.94,0,3.48.5,4.61,1.5s1.69,2.36,1.69,4.07c0,.88-.21,1.73-.64,2.56s-1.05,1.44-1.87,1.86l3.3,8.2h-4.36l-3.34-8.28h-.07v8.28h-4.13v-18.19ZM369.63,54.02v4.32c1.83-.04,2.74-.68,2.74-1.92,0-.84-.21-1.45-.63-1.81s-1.12-.56-2.11-.59Z"/>
    <path d="M388.09,50.5h8.35v3.87h-4.22v3.35h3.67v3.77h-3.67v3.31h4.25v3.88h-8.38v-18.19Z"/>
  </g>
  <text class="cls-2" transform="translate(173.22 114.45)"><tspan class="cls-8" x="0" y="0">藝</tspan><tspan class="cls-4" x="50.41" y="0">文日</tspan><tspan class="cls-7" x="149.91" y="0">誌</tspan></text>
</svg>